<svg width="24" height="24" viewBox="0 0 24 24" fill="none" xmlns="http://www.w3.org/2000/svg">
<path d="M6.26087 6.08333H2.43478M2.43478 4.91667H5.30435M1.95652 5.5V8.41667H1V5.5M2.43478 8.41667H2.91304V9.58333H1.47826M3.3913 9.58333H5.78261M5.78261 9.58333V6.66667M5.78261 9.58333V10.75H2.91304V10.1667M7.69565 5.5V8.41667H9.13043M7.21739 9.58333H10.087M7.69565 11.3333V14.25H9.6087V11.3333M8.17391 13.0833H9.13043M10.087 11.9167H11.0435M10.087 13.0833H13.913M10.087 14.25H13.913M8.17391 15.4167H15.8261M8.65217 5.5V4.33333M9.6087 2V4.33333M10.087 3.75H13.913M17.7391 6.08333H21.5652M21.5652 4.91667H18.6957M22.0435 5.5V8.41667H23V5.5M21.5652 8.41667H21.087V9.58333H22.5217M20.6087 9.58333H18.2174M18.2174 9.58333V6.66667M18.2174 9.58333V10.75H21.087V10.1667M16.3043 5.5V8.41667H14.8696M16.7826 9.58333H13.913M16.3043 11.3333V14.25H14.3913V11.3333M15.8261 13.0833H14.8696M13.913 11.9167H12.9565M15.3478 5.5V4.33333M14.3913 2V4.33333M8.17391 16.5833H10.087M15.8261 16.5833H13.913M8.65217 17.1667V21.8333M15.3478 17.1667V21.8333M9.13043 21.25H10.087M14.8696 21.25H13.913M9.6087 21.8333V23M14.3913 21.8333V23M10.087 22.4167H13.913M10.5652 18.3333V20.6667M13.4348 18.3333V20.6667M6.26087 7.25H6.73913V9.58333H6.26087V7.25ZM9.6087 10.1667V10.75H7.69565V10.1667H9.6087ZM17.7391 7.25H17.2609V9.58333H17.7391V7.25ZM14.3913 10.1667V10.75H16.3043V10.1667H14.3913Z" stroke="currentColor" stroke-width="1.16667"/>
</svg>
