<svg width="20" height="20" viewBox="0 0 20 20" fill="none" xmlns="http://www.w3.org/2000/svg">
<path d="M18.3333 9.16665V8.33331H17.5V7.49998H16.6667V6.66665H15.8333V5.83331H15V4.99998H14.1667V4.16665H13.3333V3.33331H12.5V2.49998H11.6667V1.66665H10.8333V0.833313H9.16666V1.66665H8.33333V2.49998H7.5V3.33331H6.66666V4.16665H5.83333V4.99998H5V5.83331H4.16666V6.66665H3.33333V7.49998H2.49999V8.33331H1.66666V9.16665H0.833328V9.99998H3.33333V18.3333H4.16666V19.1666H7.5V13.3333H12.5V19.1666H15.8333V18.3333H16.6667V9.99998H19.1667V9.16665H18.3333ZM15.8333 9.16665H15V17.5H14.1667V12.5H13.3333V11.6666H6.66666V12.5H5.83333V17.5H5V9.16665H4.16666V8.33331H5V7.49998H5.83333V6.66665H6.66666V5.83331H7.5V4.99998H8.33333V4.16665H9.16666V3.33331H10.8333V4.16665H11.6667V4.99998H12.5V5.83331H13.3333V6.66665H14.1667V7.49998H15V8.33331H15.8333V9.16665Z" fill="currentColor"/>
</svg>
