<svg width="20" height="20" viewBox="0 0 20 20" fill="none" xmlns="http://www.w3.org/2000/svg">
<path d="M0.833323 4.16669V5.00002H2.49999V5.83335H3.33332V7.50002H4.16666V5.83335H4.99999V5.00002H6.66666V4.16669H4.99999V3.33335H4.16666V1.66669H3.33332V3.33335H2.49999V4.16669H0.833323Z" fill="currentColor"/>
<path d="M0.833323 15V15.8333H2.49999V16.6667H3.33332V18.3333H4.16666V16.6667H4.99999V15.8333H6.66666V15H4.99999V14.1667H4.16666V12.5H3.33332V14.1667H2.49999V15H0.833323Z" fill="currentColor"/>
<path d="M7.49999 9.16665V8.33331H9.16666V7.49998H9.99999V6.66665H10.8333V4.99998H11.6667V3.33331H13.3333V4.99998H14.1667V6.66665H15V7.49998H15.8333V8.33331H17.5V9.16665H19.1667V10.8333H17.5V11.6666H15.8333V12.5H15V13.3333H14.1667V15H13.3333V16.6666H11.6667V15H10.8333V13.3333H9.99999V12.5H9.16666V11.6666H7.49999V10.8333H5.83332V9.16665H7.49999ZM9.99999 10.8333V11.6666H10.8333V12.5H11.6667V14.1666H13.3333V12.5H14.1667V11.6666H15V10.8333H16.6667V9.16665H15V8.33331H14.1667V7.49998H13.3333V5.83331H11.6667V7.49998H10.8333V8.33331H9.99999V9.16665H8.33332V10.8333H9.99999Z" fill="currentColor"/>
</svg>
