<svg width="24" height="24" viewBox="0 0 24 24" fill="none" xmlns="http://www.w3.org/2000/svg">
<path d="M12.7027 4.56757H10.3243V5.75676H12.7027V4.56757Z" fill="currentColor"/>
<path d="M10.3243 5.75674H9.13513V6.94593H10.3243V5.75674Z" fill="currentColor"/>
<path d="M19.8378 8.13514V5.75676H18.6486V4.56757H17.4595V3.37838H16.2703V2.18919H13.8919V1H9.13514V2.18919H6.75676V3.37838H5.56757V4.56757H4.37838V5.75676H3.18919V8.13514H2V12.8919H3.18919V15.2703H4.37838V16.4595H5.56757V17.6486H6.75676V18.8378H7.94595V20.027H15.0811V18.8378H16.2703V17.6486H17.4595V16.4595H18.6486V15.2703H19.8378V12.8919H21.027V8.13514H19.8378ZM18.6486 12.8919H17.4595V15.2703H16.2703V16.4595H15.0811H13.8919V17.6486H12.7027H10.3243H9.13514V16.4595H7.94595H6.75676V15.2703H5.56757V12.8919H4.37838V8.13514H5.56757V5.75676H6.75676V4.56757H9.13514V3.37838H13.8919V4.56757H16.2703V5.75676H17.4595V8.13514H18.6486V12.8919Z" fill="currentColor"/>
<path d="M9.13514 6.94595H7.94595V8.13514H9.13514V6.94595Z" fill="currentColor"/>
<path d="M7.94593 8.13513H6.75674V10.5135H7.94593V8.13513Z" fill="currentColor"/>
<path d="M7.35135 19.4324H8.54054H14.4865H15.6757H16.8649L19.2432 20.6216V23H18.0541H16.8649H12.1081H6.16216H4.97297H3.78378V21.8108V20.6216L6.16216 19.4324H7.35135Z" fill="currentColor" stroke="currentColor" stroke-width="1.18919"/>
</svg>
