<svg width="20" height="20" viewBox="0 0 20 20" fill="none" xmlns="http://www.w3.org/2000/svg">
<g clip-path="url(#clip0_105_1183)">
<path d="M16.6667 12.5V18.3333H15.8333V19.1667H1.66666V18.3333H0.833328V4.16667H1.66666V3.33333H9.16666V5H2.49999V17.5H15V12.5H16.6667Z" fill="currentColor"/>
<path d="M19.1667 0.833332V7.5H17.5V4.16667H16.6667V5H15.8333V5.83333H15V6.66667H14.1667V7.5H13.3333V8.33333H12.5V9.16667H11.6667V10H10.8333V10.8333H9.99999V11.6667H9.16666V12.5H8.33333V13.3333H7.49999V14.1667H5.83333V12.5H6.66666V11.6667H7.49999V10.8333H8.33333V10H9.16666V9.16667H9.99999V8.33333H10.8333V7.5H11.6667V6.66667H12.5V5.83333H13.3333V5H14.1667V4.16667H15V3.33333H15.8333V2.5H12.5V0.833332H19.1667Z" fill="currentColor"/>
</g>
<defs>
<clipPath id="clip0_105_1183">
<rect width="20" height="20" fill="white"/>
</clipPath>
</defs>
</svg>
