<svg width="20" height="20" viewBox="0 0 20 20" fill="none" xmlns="http://www.w3.org/2000/svg">
<path d="M15.8333 9.16665V8.33331H16.6667V7.49998H17.5V6.66665H18.3333V5.83331H19.1667V3.33331H18.3333V2.49998H17.5V1.66665H16.6667V0.833313H14.1667V1.66665H13.3333V2.49998H12.5V3.33331H11.6667V4.16665H10.8333V4.99998H9.16668V4.16665H8.33334V3.33331H7.50001V2.49998H6.66668V1.66665H5.83334V0.833313H4.16668V1.66665H3.33334V2.49998H2.50001V3.33331H1.66668V4.16665H0.833344V5.83331H1.66668V6.66665H2.50001V7.49998H3.33334V8.33331H4.16668V9.16665H5.00001V10.8333H4.16668V11.6666H3.33334V12.5H2.50001V13.3333H1.66668V14.1666H0.833344V19.1666H5.83334V18.3333H6.66668V17.5H7.50001V16.6666H8.33334V15.8333H9.16668V15H10.8333V15.8333H11.6667V16.6666H12.5V17.5H13.3333V18.3333H14.1667V19.1666H15.8333V18.3333H16.6667V17.5H17.5V16.6666H18.3333V15.8333H19.1667V14.1666H18.3333V13.3333H17.5V12.5H16.6667V11.6666H15.8333V10.8333H15V9.16665H15.8333ZM5.83334 8.33331V7.49998H5.00001V6.66665H4.16668V5.83331H3.33334V4.16665H4.16668V3.33331H5.83334V4.16665H6.66668V4.99998H5.83334V5.83331H6.66668V6.66665H7.50001V5.83331H8.33334V7.49998H7.50001V8.33331H5.83334ZM10.8333 10.8333V11.6666H10V12.5H9.16668V13.3333H8.33334V14.1666H7.50001V15H6.66668V15.8333H5.83334V16.6666H5.00001V17.5H2.50001V15H3.33334V14.1666H4.16668V13.3333H5.00001V12.5H5.83334V11.6666H6.66668V10.8333H7.50001V9.99998H8.33334V9.16665H9.16668V8.33331H10V7.49998H10.8333V6.66665H11.6667V5.83331H12.5V6.66665H13.3333V7.49998H14.1667V8.33331H13.3333V9.16665H12.5V9.99998H11.6667V10.8333H10.8333ZM15.8333 13.3333V14.1666H16.6667V15.8333H15.8333V16.6666H14.1667V15.8333H13.3333V15H12.5V14.1666H11.6667V12.5H12.5V11.6666H14.1667V12.5H13.3333V13.3333H14.1667V14.1666H15V13.3333H15.8333ZM14.1667 5.83331V4.99998H13.3333V4.16665H14.1667V3.33331H15V2.49998H15.8333V3.33331H16.6667V4.16665H17.5V4.99998H16.6667V5.83331H15.8333V6.66665H15V5.83331H14.1667Z" fill="currentColor"/>
</svg>
