<svg width="20" height="20" viewBox="0 0 20 20" fill="none" xmlns="http://www.w3.org/2000/svg">
<path d="M14.1667 4.16665V2.49998H13.3333V1.66665H11.6667V0.833313H8.33333V1.66665H6.66667V2.49998H5.83333V4.16665H5V7.49998H5.83333V9.16665H6.66667V9.99998H8.33333V10.8333H11.6667V9.99998H13.3333V9.16665H14.1667V7.49998H15V4.16665H14.1667ZM12.5 7.49998V8.33331H11.6667V9.16665H8.33333V8.33331H7.5V7.49998H6.66667V4.16665H7.5V3.33331H8.33333V2.49998H11.6667V3.33331H12.5V4.16665H13.3333V7.49998H12.5Z" fill="currentColor"/>
<path d="M17.5 15.8333V15H16.6667V14.1667H15.8333V13.3333H14.1667V12.5H5.83332V13.3333H4.16666V14.1667H3.33332V15H2.49999V15.8333H1.66666V18.3333H2.49999V19.1667H17.5V18.3333H18.3333V15.8333H17.5ZM4.16666 15.8333V15H5.83332V14.1667H14.1667V15H15.8333V15.8333H16.6667V17.5H3.33332V15.8333H4.16666Z" fill="currentColor"/>
</svg>
