<svg width="187" height="89" viewBox="0 0 187 89"
  xmlns="http://www.w3.org/2000/svg">
  <style>
    .svg-background { fill: #fffafa !important; }
    .svg-fixed-black { fill: black; !important; }
    @media (prefers-color-scheme: dark) {
    .svg-background { fill: var(--text-default) } //#2be02b
    }
  </style>
  <path
    class="svg-background"
    d="M31.9162 48.476C31.3082 48.476 30.8602 48.62 30.5722 48.908C30.3162 49.164 30.1882 49.596 30.1882 50.204V67.868L27.4042 61.82C27.1482 61.276 26.8122 60.892 26.3962 60.668C25.9802 60.444 25.4682 60.332 24.8602 60.332H22.8442C22.2362 60.332 21.7242 60.444 21.3082 60.668C20.8922 60.892 20.5562 61.276 20.3002 61.82L17.5162 67.868V50.204C17.5162 49.596 17.3722 49.164 17.0842 48.908C16.8282 48.62 16.3962 48.476 15.7882 48.476H8.39618C7.78818 48.476 7.34018 48.62 7.05218 48.908C6.79618 49.164 6.66818 49.596 6.66818 50.204V68.732C6.66818 69.756 6.70018 70.716 6.76418 71.612C6.86018 72.476 7.11618 73.5 7.53218 74.684L9.93218 81.308C10.0922 81.82 10.3482 82.236 10.7002 82.556C11.0842 82.876 11.5322 83.036 12.0442 83.036H18.3802C18.8922 83.036 19.3242 82.924 19.6762 82.7C20.0282 82.444 20.2682 82.076 20.3962 81.596L22.6522 73.772C22.7482 73.452 22.8602 73.244 22.9882 73.148C23.1482 73.02 23.3242 72.956 23.5162 72.956H23.9482C24.1402 72.956 24.3002 73.02 24.4282 73.148C24.5882 73.244 24.7162 73.452 24.8122 73.772L27.0202 81.596C27.1482 82.108 27.4202 82.476 27.8362 82.7C28.2522 82.924 28.7162 83.036 29.2282 83.036H35.6122C36.1242 83.036 36.5242 82.876 36.8122 82.556C37.1322 82.204 37.3722 81.788 37.5322 81.308L39.9322 74.78C40.3482 73.596 40.5882 72.572 40.6522 71.708C40.7482 70.812 40.7962 69.852 40.7962 68.828V50.204C40.7962 49.596 40.6522 49.164 40.3642 48.908C40.1082 48.62 39.6762 48.476 39.0682 48.476H31.9162Z"
  />
  <path
    class="svg-background"
    d="M52.7321 83.036H73.1801C73.7881 83.036 74.2201 82.908 74.4761 82.652C74.7641 82.364 74.9081 81.916 74.9081 81.308V75.596C74.9081 74.988 74.7641 74.556 74.4761 74.3C74.2201 74.012 73.7881 73.868 73.1801 73.868H68.5241V57.74H73.1801C73.7881 57.74 74.2201 57.612 74.4761 57.356C74.7641 57.068 74.9081 56.62 74.9081 56.012V50.204C74.9081 49.596 74.7641 49.164 74.4761 48.908C74.2201 48.62 73.7881 48.476 73.1801 48.476H52.7321C52.1241 48.476 51.6761 48.62 51.3881 48.908C51.1321 49.164 51.0041 49.596 51.0041 50.204V56.012C51.0041 56.62 51.1321 57.068 51.3881 57.356C51.6761 57.612 52.1241 57.74 52.7321 57.74H57.4841V73.868H52.7321C52.1241 73.868 51.6761 74.012 51.3881 74.3C51.1321 74.556 51.0041 74.988 51.0041 75.596V81.308C51.0041 81.916 51.1321 82.364 51.3881 82.652C51.6761 82.908 52.1241 83.036 52.7321 83.036Z"
  />
  <path
    class="svg-background"
    d="M101.936 83.036C102.544 83.036 102.976 82.908 103.232 82.652C103.52 82.364 103.664 81.916 103.664 81.308V57.74H110.72C111.328 57.74 111.76 57.612 112.016 57.356C112.304 57.068 112.448 56.62 112.448 56.012V50.204C112.448 49.596 112.304 49.164 112.016 48.908C111.76 48.62 111.328 48.476 110.72 48.476H85.3758C84.7678 48.476 84.3198 48.62 84.0318 48.908C83.7758 49.164 83.6478 49.596 83.6478 50.204V56.012C83.6478 56.62 83.7758 57.068 84.0318 57.356C84.3198 57.612 84.7678 57.74 85.3758 57.74H92.4318V81.308C92.4318 81.916 92.5598 82.364 92.8158 82.652C93.1038 82.908 93.5518 83.036 94.1598 83.036H101.936Z"
  />
  <path
    class="svg-background"
    d="M144.655 83.036C145.263 83.036 145.695 82.908 145.951 82.652C146.239 82.364 146.383 81.916 146.383 81.308V75.596C146.383 74.988 146.239 74.556 145.951 74.3C145.695 74.012 145.263 73.868 144.655 73.868H135.007C134.015 73.868 133.279 73.692 132.799 73.34C132.319 72.956 132.079 72.364 132.079 71.564V60.14C132.079 59.34 132.319 58.748 132.799 58.364C133.279 57.948 134.015 57.74 135.007 57.74H144.655C145.263 57.74 145.695 57.612 145.951 57.356C146.239 57.068 146.383 56.62 146.383 56.012V50.204C146.383 49.596 146.239 49.164 145.951 48.908C145.695 48.62 145.263 48.476 144.655 48.476H132.943C128.943 48.476 125.967 49.292 124.015 50.924C122.095 52.524 121.135 54.988 121.135 58.316V73.244C121.135 76.572 122.095 79.036 124.015 80.636C125.967 82.236 128.943 83.036 132.943 83.036H144.655Z"
  />
  <path
    class="svg-background"
    d="M165.753 83.036C166.361 83.036 166.793 82.908 167.049 82.652C167.337 82.364 167.481 81.916 167.481 81.308V70.652H175.497V81.308C175.497 81.916 175.625 82.364 175.881 82.652C176.169 82.908 176.617 83.036 177.225 83.036H184.665C185.273 83.036 185.705 82.908 185.961 82.652C186.249 82.364 186.393 81.916 186.393 81.308V50.204C186.393 49.596 186.249 49.164 185.961 48.908C185.705 48.62 185.273 48.476 184.665 48.476H177.225C176.617 48.476 176.169 48.62 175.881 48.908C175.625 49.164 175.497 49.596 175.497 50.204V60.62H167.481V50.204C167.481 49.596 167.337 49.164 167.049 48.908C166.793 48.62 166.361 48.476 165.753 48.476H158.313C157.705 48.476 157.257 48.62 156.969 48.908C156.713 49.164 156.585 49.596 156.585 50.204V81.308C156.585 81.916 156.713 82.364 156.969 82.652C157.257 82.908 157.705 83.036 158.313 83.036H165.753Z"
  />
  <path
    class="svg-background"
    d="M31.9162 48.476C31.3082 48.476 30.8602 48.62 30.5722 48.908C30.3162 49.164 30.1882 49.596 30.1882 50.204V67.868L27.4042 61.82C27.1482 61.276 26.8122 60.892 26.3962 60.668C25.9802 60.444 25.4682 60.332 24.8602 60.332H22.8442C22.2362 60.332 21.7242 60.444 21.3082 60.668C20.8922 60.892 20.5562 61.276 20.3002 61.82L17.5162 67.868V50.204C17.5162 49.596 17.3722 49.164 17.0842 48.908C16.8282 48.62 16.3962 48.476 15.7882 48.476H8.39618C7.78818 48.476 7.34018 48.62 7.05218 48.908C6.79618 49.164 6.66818 49.596 6.66818 50.204V68.732C6.66818 69.756 6.70018 70.716 6.76418 71.612C6.86018 72.476 7.11618 73.5 7.53218 74.684L9.93218 81.308C10.0922 81.82 10.3482 82.236 10.7002 82.556C11.0842 82.876 11.5322 83.036 12.0442 83.036H18.3802C18.8922 83.036 19.3242 82.924 19.6762 82.7C20.0282 82.444 20.2682 82.076 20.3962 81.596L22.6522 73.772C22.7482 73.452 22.8602 73.244 22.9882 73.148C23.1482 73.02 23.3242 72.956 23.5162 72.956H23.9482C24.1402 72.956 24.3002 73.02 24.4282 73.148C24.5882 73.244 24.7162 73.452 24.8122 73.772L27.0202 81.596C27.1482 82.108 27.4202 82.476 27.8362 82.7C28.2522 82.924 28.7162 83.036 29.2282 83.036H35.6122C36.1242 83.036 36.5242 82.876 36.8122 82.556C37.1322 82.204 37.3722 81.788 37.5322 81.308L39.9322 74.78C40.3482 73.596 40.5882 72.572 40.6522 71.708C40.7482 70.812 40.7962 69.852 40.7962 68.828V50.204C40.7962 49.596 40.6522 49.164 40.3642 48.908C40.1082 48.62 39.6762 48.476 39.0682 48.476H31.9162Z"
  />
  <path
    class="svg-background"
    d="M52.7321 83.036H73.1801C73.7881 83.036 74.2201 82.908 74.4761 82.652C74.7641 82.364 74.9081 81.916 74.9081 81.308V75.596C74.9081 74.988 74.7641 74.556 74.4761 74.3C74.2201 74.012 73.7881 73.868 73.1801 73.868H68.5241V57.74H73.1801C73.7881 57.74 74.2201 57.612 74.4761 57.356C74.7641 57.068 74.9081 56.62 74.9081 56.012V50.204C74.9081 49.596 74.7641 49.164 74.4761 48.908C74.2201 48.62 73.7881 48.476 73.1801 48.476H52.7321C52.1241 48.476 51.6761 48.62 51.3881 48.908C51.1321 49.164 51.0041 49.596 51.0041 50.204V56.012C51.0041 56.62 51.1321 57.068 51.3881 57.356C51.6761 57.612 52.1241 57.74 52.7321 57.74H57.4841V73.868H52.7321C52.1241 73.868 51.6761 74.012 51.3881 74.3C51.1321 74.556 51.0041 74.988 51.0041 75.596V81.308C51.0041 81.916 51.1321 82.364 51.3881 82.652C51.6761 82.908 52.1241 83.036 52.7321 83.036Z"
  />
  <path
    class="svg-background"
    d="M101.936 83.036C102.544 83.036 102.976 82.908 103.232 82.652C103.52 82.364 103.664 81.916 103.664 81.308V57.74H110.72C111.328 57.74 111.76 57.612 112.016 57.356C112.304 57.068 112.448 56.62 112.448 56.012V50.204C112.448 49.596 112.304 49.164 112.016 48.908C111.76 48.62 111.328 48.476 110.72 48.476H85.3758C84.7678 48.476 84.3198 48.62 84.0318 48.908C83.7758 49.164 83.6478 49.596 83.6478 50.204V56.012C83.6478 56.62 83.7758 57.068 84.0318 57.356C84.3198 57.612 84.7678 57.74 85.3758 57.74H92.4318V81.308C92.4318 81.916 92.5598 82.364 92.8158 82.652C93.1038 82.908 93.5518 83.036 94.1598 83.036H101.936Z"
  />
  <path
    class="svg-background"
    d="M144.655 83.036C145.263 83.036 145.695 82.908 145.951 82.652C146.239 82.364 146.383 81.916 146.383 81.308V75.596C146.383 74.988 146.239 74.556 145.951 74.3C145.695 74.012 145.263 73.868 144.655 73.868H135.007C134.015 73.868 133.279 73.692 132.799 73.34C132.319 72.956 132.079 72.364 132.079 71.564V60.14C132.079 59.34 132.319 58.748 132.799 58.364C133.279 57.948 134.015 57.74 135.007 57.74H144.655C145.263 57.74 145.695 57.612 145.951 57.356C146.239 57.068 146.383 56.62 146.383 56.012V50.204C146.383 49.596 146.239 49.164 145.951 48.908C145.695 48.62 145.263 48.476 144.655 48.476H132.943C128.943 48.476 125.967 49.292 124.015 50.924C122.095 52.524 121.135 54.988 121.135 58.316V73.244C121.135 76.572 122.095 79.036 124.015 80.636C125.967 82.236 128.943 83.036 132.943 83.036H144.655Z"
  />
  <path
    class="svg-background"
    d="M165.753 83.036C166.361 83.036 166.793 82.908 167.049 82.652C167.337 82.364 167.481 81.916 167.481 81.308V70.652H175.497V81.308C175.497 81.916 175.625 82.364 175.881 82.652C176.169 82.908 176.617 83.036 177.225 83.036H184.665C185.273 83.036 185.705 82.908 185.961 82.652C186.249 82.364 186.393 81.916 186.393 81.308V50.204C186.393 49.596 186.249 49.164 185.961 48.908C185.705 48.62 185.273 48.476 184.665 48.476H177.225C176.617 48.476 176.169 48.62 175.881 48.908C175.625 49.164 175.497 49.596 175.497 50.204V60.62H167.481V50.204C167.481 49.596 167.337 49.164 167.049 48.908C166.793 48.62 166.361 48.476 165.753 48.476H158.313C157.705 48.476 157.257 48.62 156.969 48.908C156.713 49.164 156.585 49.596 156.585 50.204V81.308C156.585 81.916 156.713 82.364 156.969 82.652C157.257 82.908 157.705 83.036 158.313 83.036H165.753Z"
  />
  <path
    class="svg-background"
    d="M31.9162 48.476C31.3082 48.476 30.8602 48.62 30.5722 48.908C30.3162 49.164 30.1882 49.596 30.1882 50.204V67.868L27.4042 61.82C27.1482 61.276 26.8122 60.892 26.3962 60.668C25.9802 60.444 25.4682 60.332 24.8602 60.332H22.8442C22.2362 60.332 21.7242 60.444 21.3082 60.668C20.8922 60.892 20.5562 61.276 20.3002 61.82L17.5162 67.868V50.204C17.5162 49.596 17.3722 49.164 17.0842 48.908C16.8282 48.62 16.3962 48.476 15.7882 48.476H8.39618C7.78818 48.476 7.34018 48.62 7.05218 48.908C6.79618 49.164 6.66818 49.596 6.66818 50.204V68.732C6.66818 69.756 6.70018 70.716 6.76418 71.612C6.86018 72.476 7.11618 73.5 7.53218 74.684L9.93218 81.308C10.0922 81.82 10.3482 82.236 10.7002 82.556C11.0842 82.876 11.5322 83.036 12.0442 83.036H18.3802C18.8922 83.036 19.3242 82.924 19.6762 82.7C20.0282 82.444 20.2682 82.076 20.3962 81.596L22.6522 73.772C22.7482 73.452 22.8602 73.244 22.9882 73.148C23.1482 73.02 23.3242 72.956 23.5162 72.956H23.9482C24.1402 72.956 24.3002 73.02 24.4282 73.148C24.5882 73.244 24.7162 73.452 24.8122 73.772L27.0202 81.596C27.1482 82.108 27.4202 82.476 27.8362 82.7C28.2522 82.924 28.7162 83.036 29.2282 83.036H35.6122C36.1242 83.036 36.5242 82.876 36.8122 82.556C37.1322 82.204 37.3722 81.788 37.5322 81.308L39.9322 74.78C40.3482 73.596 40.5882 72.572 40.6522 71.708C40.7482 70.812 40.7962 69.852 40.7962 68.828V50.204C40.7962 49.596 40.6522 49.164 40.3642 48.908C40.1082 48.62 39.6762 48.476 39.0682 48.476H31.9162Z"
  />
  <path
    class="svg-background"
    d="M52.7321 83.036H73.1801C73.7881 83.036 74.2201 82.908 74.4761 82.652C74.7641 82.364 74.9081 81.916 74.9081 81.308V75.596C74.9081 74.988 74.7641 74.556 74.4761 74.3C74.2201 74.012 73.7881 73.868 73.1801 73.868H68.5241V57.74H73.1801C73.7881 57.74 74.2201 57.612 74.4761 57.356C74.7641 57.068 74.9081 56.62 74.9081 56.012V50.204C74.9081 49.596 74.7641 49.164 74.4761 48.908C74.2201 48.62 73.7881 48.476 73.1801 48.476H52.7321C52.1241 48.476 51.6761 48.62 51.3881 48.908C51.1321 49.164 51.0041 49.596 51.0041 50.204V56.012C51.0041 56.62 51.1321 57.068 51.3881 57.356C51.6761 57.612 52.1241 57.74 52.7321 57.74H57.4841V73.868H52.7321C52.1241 73.868 51.6761 74.012 51.3881 74.3C51.1321 74.556 51.0041 74.988 51.0041 75.596V81.308C51.0041 81.916 51.1321 82.364 51.3881 82.652C51.6761 82.908 52.1241 83.036 52.7321 83.036Z"
  />
  <path
    class="svg-background"
    d="M101.936 83.036C102.544 83.036 102.976 82.908 103.232 82.652C103.52 82.364 103.664 81.916 103.664 81.308V57.74H110.72C111.328 57.74 111.76 57.612 112.016 57.356C112.304 57.068 112.448 56.62 112.448 56.012V50.204C112.448 49.596 112.304 49.164 112.016 48.908C111.76 48.62 111.328 48.476 110.72 48.476H85.3758C84.7678 48.476 84.3198 48.62 84.0318 48.908C83.7758 49.164 83.6478 49.596 83.6478 50.204V56.012C83.6478 56.62 83.7758 57.068 84.0318 57.356C84.3198 57.612 84.7678 57.74 85.3758 57.74H92.4318V81.308C92.4318 81.916 92.5598 82.364 92.8158 82.652C93.1038 82.908 93.5518 83.036 94.1598 83.036H101.936Z"
  />
  <path
    class="svg-background"
    d="M144.655 83.036C145.263 83.036 145.695 82.908 145.951 82.652C146.239 82.364 146.383 81.916 146.383 81.308V75.596C146.383 74.988 146.239 74.556 145.951 74.3C145.695 74.012 145.263 73.868 144.655 73.868H135.007C134.015 73.868 133.279 73.692 132.799 73.34C132.319 72.956 132.079 72.364 132.079 71.564V60.14C132.079 59.34 132.319 58.748 132.799 58.364C133.279 57.948 134.015 57.74 135.007 57.74H144.655C145.263 57.74 145.695 57.612 145.951 57.356C146.239 57.068 146.383 56.62 146.383 56.012V50.204C146.383 49.596 146.239 49.164 145.951 48.908C145.695 48.62 145.263 48.476 144.655 48.476H132.943C128.943 48.476 125.967 49.292 124.015 50.924C122.095 52.524 121.135 54.988 121.135 58.316V73.244C121.135 76.572 122.095 79.036 124.015 80.636C125.967 82.236 128.943 83.036 132.943 83.036H144.655Z"
  />
  <path
    class="svg-background"
    d="M165.753 83.036C166.361 83.036 166.793 82.908 167.049 82.652C167.337 82.364 167.481 81.916 167.481 81.308V70.652H175.497V81.308C175.497 81.916 175.625 82.364 175.881 82.652C176.169 82.908 176.617 83.036 177.225 83.036H184.665C185.273 83.036 185.705 82.908 185.961 82.652C186.249 82.364 186.393 81.916 186.393 81.308V50.204C186.393 49.596 186.249 49.164 185.961 48.908C185.705 48.62 185.273 48.476 184.665 48.476H177.225C176.617 48.476 176.169 48.62 175.881 48.908C175.625 49.164 175.497 49.596 175.497 50.204V60.62H167.481V50.204C167.481 49.596 167.337 49.164 167.049 48.908C166.793 48.62 166.361 48.476 165.753 48.476H158.313C157.705 48.476 157.257 48.62 156.969 48.908C156.713 49.164 156.585 49.596 156.585 50.204V81.308C156.585 81.916 156.713 82.364 156.969 82.652C157.257 82.908 157.705 83.036 158.313 83.036H165.753Z"
  />
  <path
    class="svg-background"
    d="M31.9162 48.476C31.3082 48.476 30.8602 48.62 30.5722 48.908C30.3162 49.164 30.1882 49.596 30.1882 50.204V67.868L27.4042 61.82C27.1482 61.276 26.8122 60.892 26.3962 60.668C25.9802 60.444 25.4682 60.332 24.8602 60.332H22.8442C22.2362 60.332 21.7242 60.444 21.3082 60.668C20.8922 60.892 20.5562 61.276 20.3002 61.82L17.5162 67.868V50.204C17.5162 49.596 17.3722 49.164 17.0842 48.908C16.8282 48.62 16.3962 48.476 15.7882 48.476H8.39618C7.78818 48.476 7.34018 48.62 7.05218 48.908C6.79618 49.164 6.66818 49.596 6.66818 50.204V68.732C6.66818 69.756 6.70018 70.716 6.76418 71.612C6.86018 72.476 7.11618 73.5 7.53218 74.684L9.93218 81.308C10.0922 81.82 10.3482 82.236 10.7002 82.556C11.0842 82.876 11.5322 83.036 12.0442 83.036H18.3802C18.8922 83.036 19.3242 82.924 19.6762 82.7C20.0282 82.444 20.2682 82.076 20.3962 81.596L22.6522 73.772C22.7482 73.452 22.8602 73.244 22.9882 73.148C23.1482 73.02 23.3242 72.956 23.5162 72.956H23.9482C24.1402 72.956 24.3002 73.02 24.4282 73.148C24.5882 73.244 24.7162 73.452 24.8122 73.772L27.0202 81.596C27.1482 82.108 27.4202 82.476 27.8362 82.7C28.2522 82.924 28.7162 83.036 29.2282 83.036H35.6122C36.1242 83.036 36.5242 82.876 36.8122 82.556C37.1322 82.204 37.3722 81.788 37.5322 81.308L39.9322 74.78C40.3482 73.596 40.5882 72.572 40.6522 71.708C40.7482 70.812 40.7962 69.852 40.7962 68.828V50.204C40.7962 49.596 40.6522 49.164 40.3642 48.908C40.1082 48.62 39.6762 48.476 39.0682 48.476H31.9162Z"
  />
  <path
    class="svg-background"
    d="M52.7321 83.036H73.1801C73.7881 83.036 74.2201 82.908 74.4761 82.652C74.7641 82.364 74.9081 81.916 74.9081 81.308V75.596C74.9081 74.988 74.7641 74.556 74.4761 74.3C74.2201 74.012 73.7881 73.868 73.1801 73.868H68.5241V57.74H73.1801C73.7881 57.74 74.2201 57.612 74.4761 57.356C74.7641 57.068 74.9081 56.62 74.9081 56.012V50.204C74.9081 49.596 74.7641 49.164 74.4761 48.908C74.2201 48.62 73.7881 48.476 73.1801 48.476H52.7321C52.1241 48.476 51.6761 48.62 51.3881 48.908C51.1321 49.164 51.0041 49.596 51.0041 50.204V56.012C51.0041 56.62 51.1321 57.068 51.3881 57.356C51.6761 57.612 52.1241 57.74 52.7321 57.74H57.4841V73.868H52.7321C52.1241 73.868 51.6761 74.012 51.3881 74.3C51.1321 74.556 51.0041 74.988 51.0041 75.596V81.308C51.0041 81.916 51.1321 82.364 51.3881 82.652C51.6761 82.908 52.1241 83.036 52.7321 83.036Z"
  />
  <path
    class="svg-background"
    d="M101.936 83.036C102.544 83.036 102.976 82.908 103.232 82.652C103.52 82.364 103.664 81.916 103.664 81.308V57.74H110.72C111.328 57.74 111.76 57.612 112.016 57.356C112.304 57.068 112.448 56.62 112.448 56.012V50.204C112.448 49.596 112.304 49.164 112.016 48.908C111.76 48.62 111.328 48.476 110.72 48.476H85.3758C84.7678 48.476 84.3198 48.62 84.0318 48.908C83.7758 49.164 83.6478 49.596 83.6478 50.204V56.012C83.6478 56.62 83.7758 57.068 84.0318 57.356C84.3198 57.612 84.7678 57.74 85.3758 57.74H92.4318V81.308C92.4318 81.916 92.5598 82.364 92.8158 82.652C93.1038 82.908 93.5518 83.036 94.1598 83.036H101.936Z"
  />
  <path
    class="svg-background"
    d="M144.655 83.036C145.263 83.036 145.695 82.908 145.951 82.652C146.239 82.364 146.383 81.916 146.383 81.308V75.596C146.383 74.988 146.239 74.556 145.951 74.3C145.695 74.012 145.263 73.868 144.655 73.868H135.007C134.015 73.868 133.279 73.692 132.799 73.34C132.319 72.956 132.079 72.364 132.079 71.564V60.14C132.079 59.34 132.319 58.748 132.799 58.364C133.279 57.948 134.015 57.74 135.007 57.74H144.655C145.263 57.74 145.695 57.612 145.951 57.356C146.239 57.068 146.383 56.62 146.383 56.012V50.204C146.383 49.596 146.239 49.164 145.951 48.908C145.695 48.62 145.263 48.476 144.655 48.476H132.943C128.943 48.476 125.967 49.292 124.015 50.924C122.095 52.524 121.135 54.988 121.135 58.316V73.244C121.135 76.572 122.095 79.036 124.015 80.636C125.967 82.236 128.943 83.036 132.943 83.036H144.655Z"
  />
  <path
    class="svg-background"
    d="M165.753 83.036C166.361 83.036 166.793 82.908 167.049 82.652C167.337 82.364 167.481 81.916 167.481 81.308V70.652H175.497V81.308C175.497 81.916 175.625 82.364 175.881 82.652C176.169 82.908 176.617 83.036 177.225 83.036H184.665C185.273 83.036 185.705 82.908 185.961 82.652C186.249 82.364 186.393 81.916 186.393 81.308V50.204C186.393 49.596 186.249 49.164 185.961 48.908C185.705 48.62 185.273 48.476 184.665 48.476H177.225C176.617 48.476 176.169 48.62 175.881 48.908C175.625 49.164 175.497 49.596 175.497 50.204V60.62H167.481V50.204C167.481 49.596 167.337 49.164 167.049 48.908C166.793 48.62 166.361 48.476 165.753 48.476H158.313C157.705 48.476 157.257 48.62 156.969 48.908C156.713 49.164 156.585 49.596 156.585 50.204V81.308C156.585 81.916 156.713 82.364 156.969 82.652C157.257 82.908 157.705 83.036 158.313 83.036H165.753Z"
  />
  <path
    class="svg-background"
    d="M31.9162 48.476C31.3082 48.476 30.8602 48.62 30.5722 48.908C30.3162 49.164 30.1882 49.596 30.1882 50.204V67.868L27.4042 61.82C27.1482 61.276 26.8122 60.892 26.3962 60.668C25.9802 60.444 25.4682 60.332 24.8602 60.332H22.8442C22.2362 60.332 21.7242 60.444 21.3082 60.668C20.8922 60.892 20.5562 61.276 20.3002 61.82L17.5162 67.868V50.204C17.5162 49.596 17.3722 49.164 17.0842 48.908C16.8282 48.62 16.3962 48.476 15.7882 48.476H8.39618C7.78818 48.476 7.34018 48.62 7.05218 48.908C6.79618 49.164 6.66818 49.596 6.66818 50.204V68.732C6.66818 69.756 6.70018 70.716 6.76418 71.612C6.86018 72.476 7.11618 73.5 7.53218 74.684L9.93218 81.308C10.0922 81.82 10.3482 82.236 10.7002 82.556C11.0842 82.876 11.5322 83.036 12.0442 83.036H18.3802C18.8922 83.036 19.3242 82.924 19.6762 82.7C20.0282 82.444 20.2682 82.076 20.3962 81.596L22.6522 73.772C22.7482 73.452 22.8602 73.244 22.9882 73.148C23.1482 73.02 23.3242 72.956 23.5162 72.956H23.9482C24.1402 72.956 24.3002 73.02 24.4282 73.148C24.5882 73.244 24.7162 73.452 24.8122 73.772L27.0202 81.596C27.1482 82.108 27.4202 82.476 27.8362 82.7C28.2522 82.924 28.7162 83.036 29.2282 83.036H35.6122C36.1242 83.036 36.5242 82.876 36.8122 82.556C37.1322 82.204 37.3722 81.788 37.5322 81.308L39.9322 74.78C40.3482 73.596 40.5882 72.572 40.6522 71.708C40.7482 70.812 40.7962 69.852 40.7962 68.828V50.204C40.7962 49.596 40.6522 49.164 40.3642 48.908C40.1082 48.62 39.6762 48.476 39.0682 48.476H31.9162Z"
  />
  <path
    class="svg-background"
    d="M52.7321 83.036H73.1801C73.7881 83.036 74.2201 82.908 74.4761 82.652C74.7641 82.364 74.9081 81.916 74.9081 81.308V75.596C74.9081 74.988 74.7641 74.556 74.4761 74.3C74.2201 74.012 73.7881 73.868 73.1801 73.868H68.5241V57.74H73.1801C73.7881 57.74 74.2201 57.612 74.4761 57.356C74.7641 57.068 74.9081 56.62 74.9081 56.012V50.204C74.9081 49.596 74.7641 49.164 74.4761 48.908C74.2201 48.62 73.7881 48.476 73.1801 48.476H52.7321C52.1241 48.476 51.6761 48.62 51.3881 48.908C51.1321 49.164 51.0041 49.596 51.0041 50.204V56.012C51.0041 56.62 51.1321 57.068 51.3881 57.356C51.6761 57.612 52.1241 57.74 52.7321 57.74H57.4841V73.868H52.7321C52.1241 73.868 51.6761 74.012 51.3881 74.3C51.1321 74.556 51.0041 74.988 51.0041 75.596V81.308C51.0041 81.916 51.1321 82.364 51.3881 82.652C51.6761 82.908 52.1241 83.036 52.7321 83.036Z"
  />
  <path
    class="svg-background"
    d="M101.936 83.036C102.544 83.036 102.976 82.908 103.232 82.652C103.52 82.364 103.664 81.916 103.664 81.308V57.74H110.72C111.328 57.74 111.76 57.612 112.016 57.356C112.304 57.068 112.448 56.62 112.448 56.012V50.204C112.448 49.596 112.304 49.164 112.016 48.908C111.76 48.62 111.328 48.476 110.72 48.476H85.3758C84.7678 48.476 84.3198 48.62 84.0318 48.908C83.7758 49.164 83.6478 49.596 83.6478 50.204V56.012C83.6478 56.62 83.7758 57.068 84.0318 57.356C84.3198 57.612 84.7678 57.74 85.3758 57.74H92.4318V81.308C92.4318 81.916 92.5598 82.364 92.8158 82.652C93.1038 82.908 93.5518 83.036 94.1598 83.036H101.936Z"
  />
  <path
    class="svg-background"
    d="M144.655 83.036C145.263 83.036 145.695 82.908 145.951 82.652C146.239 82.364 146.383 81.916 146.383 81.308V75.596C146.383 74.988 146.239 74.556 145.951 74.3C145.695 74.012 145.263 73.868 144.655 73.868H135.007C134.015 73.868 133.279 73.692 132.799 73.34C132.319 72.956 132.079 72.364 132.079 71.564V60.14C132.079 59.34 132.319 58.748 132.799 58.364C133.279 57.948 134.015 57.74 135.007 57.74H144.655C145.263 57.74 145.695 57.612 145.951 57.356C146.239 57.068 146.383 56.62 146.383 56.012V50.204C146.383 49.596 146.239 49.164 145.951 48.908C145.695 48.62 145.263 48.476 144.655 48.476H132.943C128.943 48.476 125.967 49.292 124.015 50.924C122.095 52.524 121.135 54.988 121.135 58.316V73.244C121.135 76.572 122.095 79.036 124.015 80.636C125.967 82.236 128.943 83.036 132.943 83.036H144.655Z"
  />
  <path
    class="svg-background"
    d="M165.753 83.036C166.361 83.036 166.793 82.908 167.049 82.652C167.337 82.364 167.481 81.916 167.481 81.308V70.652H175.497V81.308C175.497 81.916 175.625 82.364 175.881 82.652C176.169 82.908 176.617 83.036 177.225 83.036H184.665C185.273 83.036 185.705 82.908 185.961 82.652C186.249 82.364 186.393 81.916 186.393 81.308V50.204C186.393 49.596 186.249 49.164 185.961 48.908C185.705 48.62 185.273 48.476 184.665 48.476H177.225C176.617 48.476 176.169 48.62 175.881 48.908C175.625 49.164 175.497 49.596 175.497 50.204V60.62H167.481V50.204C167.481 49.596 167.337 49.164 167.049 48.908C166.793 48.62 166.361 48.476 165.753 48.476H158.313C157.705 48.476 157.257 48.62 156.969 48.908C156.713 49.164 156.585 49.596 156.585 50.204V81.308C156.585 81.916 156.713 82.364 156.969 82.652C157.257 82.908 157.705 83.036 158.313 83.036H165.753Z"
  />
  <path
    class="svg-background"
    d="M31.9162 48.476C31.3082 48.476 30.8602 48.62 30.5722 48.908C30.3162 49.164 30.1882 49.596 30.1882 50.204V67.868L27.4042 61.82C27.1482 61.276 26.8122 60.892 26.3962 60.668C25.9802 60.444 25.4682 60.332 24.8602 60.332H22.8442C22.2362 60.332 21.7242 60.444 21.3082 60.668C20.8922 60.892 20.5562 61.276 20.3002 61.82L17.5162 67.868V50.204C17.5162 49.596 17.3722 49.164 17.0842 48.908C16.8282 48.62 16.3962 48.476 15.7882 48.476H8.39618C7.78818 48.476 7.34018 48.62 7.05218 48.908C6.79618 49.164 6.66818 49.596 6.66818 50.204V68.732C6.66818 69.756 6.70018 70.716 6.76418 71.612C6.86018 72.476 7.11618 73.5 7.53218 74.684L9.93218 81.308C10.0922 81.82 10.3482 82.236 10.7002 82.556C11.0842 82.876 11.5322 83.036 12.0442 83.036H18.3802C18.8922 83.036 19.3242 82.924 19.6762 82.7C20.0282 82.444 20.2682 82.076 20.3962 81.596L22.6522 73.772C22.7482 73.452 22.8602 73.244 22.9882 73.148C23.1482 73.02 23.3242 72.956 23.5162 72.956H23.9482C24.1402 72.956 24.3002 73.02 24.4282 73.148C24.5882 73.244 24.7162 73.452 24.8122 73.772L27.0202 81.596C27.1482 82.108 27.4202 82.476 27.8362 82.7C28.2522 82.924 28.7162 83.036 29.2282 83.036H35.6122C36.1242 83.036 36.5242 82.876 36.8122 82.556C37.1322 82.204 37.3722 81.788 37.5322 81.308L39.9322 74.78C40.3482 73.596 40.5882 72.572 40.6522 71.708C40.7482 70.812 40.7962 69.852 40.7962 68.828V50.204C40.7962 49.596 40.6522 49.164 40.3642 48.908C40.1082 48.62 39.6762 48.476 39.0682 48.476H31.9162Z"
  />
  <path
    class="svg-background"
    d="M52.7321 83.036H73.1801C73.7881 83.036 74.2201 82.908 74.4761 82.652C74.7641 82.364 74.9081 81.916 74.9081 81.308V75.596C74.9081 74.988 74.7641 74.556 74.4761 74.3C74.2201 74.012 73.7881 73.868 73.1801 73.868H68.5241V57.74H73.1801C73.7881 57.74 74.2201 57.612 74.4761 57.356C74.7641 57.068 74.9081 56.62 74.9081 56.012V50.204C74.9081 49.596 74.7641 49.164 74.4761 48.908C74.2201 48.62 73.7881 48.476 73.1801 48.476H52.7321C52.1241 48.476 51.6761 48.62 51.3881 48.908C51.1321 49.164 51.0041 49.596 51.0041 50.204V56.012C51.0041 56.62 51.1321 57.068 51.3881 57.356C51.6761 57.612 52.1241 57.74 52.7321 57.74H57.4841V73.868H52.7321C52.1241 73.868 51.6761 74.012 51.3881 74.3C51.1321 74.556 51.0041 74.988 51.0041 75.596V81.308C51.0041 81.916 51.1321 82.364 51.3881 82.652C51.6761 82.908 52.1241 83.036 52.7321 83.036Z"
  />
  <path
    class="svg-background"
    d="M101.936 83.036C102.544 83.036 102.976 82.908 103.232 82.652C103.52 82.364 103.664 81.916 103.664 81.308V57.74H110.72C111.328 57.74 111.76 57.612 112.016 57.356C112.304 57.068 112.448 56.62 112.448 56.012V50.204C112.448 49.596 112.304 49.164 112.016 48.908C111.76 48.62 111.328 48.476 110.72 48.476H85.3758C84.7678 48.476 84.3198 48.62 84.0318 48.908C83.7758 49.164 83.6478 49.596 83.6478 50.204V56.012C83.6478 56.62 83.7758 57.068 84.0318 57.356C84.3198 57.612 84.7678 57.74 85.3758 57.74H92.4318V81.308C92.4318 81.916 92.5598 82.364 92.8158 82.652C93.1038 82.908 93.5518 83.036 94.1598 83.036H101.936Z"
  />
  <path
    class="svg-background"
    d="M144.655 83.036C145.263 83.036 145.695 82.908 145.951 82.652C146.239 82.364 146.383 81.916 146.383 81.308V75.596C146.383 74.988 146.239 74.556 145.951 74.3C145.695 74.012 145.263 73.868 144.655 73.868H135.007C134.015 73.868 133.279 73.692 132.799 73.34C132.319 72.956 132.079 72.364 132.079 71.564V60.14C132.079 59.34 132.319 58.748 132.799 58.364C133.279 57.948 134.015 57.74 135.007 57.74H144.655C145.263 57.74 145.695 57.612 145.951 57.356C146.239 57.068 146.383 56.62 146.383 56.012V50.204C146.383 49.596 146.239 49.164 145.951 48.908C145.695 48.62 145.263 48.476 144.655 48.476H132.943C128.943 48.476 125.967 49.292 124.015 50.924C122.095 52.524 121.135 54.988 121.135 58.316V73.244C121.135 76.572 122.095 79.036 124.015 80.636C125.967 82.236 128.943 83.036 132.943 83.036H144.655Z"
  />
  <path
    class="svg-background"
    d="M165.753 83.036C166.361 83.036 166.793 82.908 167.049 82.652C167.337 82.364 167.481 81.916 167.481 81.308V70.652H175.497V81.308C175.497 81.916 175.625 82.364 175.881 82.652C176.169 82.908 176.617 83.036 177.225 83.036H184.665C185.273 83.036 185.705 82.908 185.961 82.652C186.249 82.364 186.393 81.916 186.393 81.308V50.204C186.393 49.596 186.249 49.164 185.961 48.908C185.705 48.62 185.273 48.476 184.665 48.476H177.225C176.617 48.476 176.169 48.62 175.881 48.908C175.625 49.164 175.497 49.596 175.497 50.204V60.62H167.481V50.204C167.481 49.596 167.337 49.164 167.049 48.908C166.793 48.62 166.361 48.476 165.753 48.476H158.313C157.705 48.476 157.257 48.62 156.969 48.908C156.713 49.164 156.585 49.596 156.585 50.204V81.308C156.585 81.916 156.713 82.364 156.969 82.652C157.257 82.908 157.705 83.036 158.313 83.036H165.753Z"
  />
  <path
    class="svg-background"
    d="M31.9162 48.476C31.3082 48.476 30.8602 48.62 30.5722 48.908C30.3162 49.164 30.1882 49.596 30.1882 50.204V67.868L27.4042 61.82C27.1482 61.276 26.8122 60.892 26.3962 60.668C25.9802 60.444 25.4682 60.332 24.8602 60.332H22.8442C22.2362 60.332 21.7242 60.444 21.3082 60.668C20.8922 60.892 20.5562 61.276 20.3002 61.82L17.5162 67.868V50.204C17.5162 49.596 17.3722 49.164 17.0842 48.908C16.8282 48.62 16.3962 48.476 15.7882 48.476H8.39618C7.78818 48.476 7.34018 48.62 7.05218 48.908C6.79618 49.164 6.66818 49.596 6.66818 50.204V68.732C6.66818 69.756 6.70018 70.716 6.76418 71.612C6.86018 72.476 7.11618 73.5 7.53218 74.684L9.93218 81.308C10.0922 81.82 10.3482 82.236 10.7002 82.556C11.0842 82.876 11.5322 83.036 12.0442 83.036H18.3802C18.8922 83.036 19.3242 82.924 19.6762 82.7C20.0282 82.444 20.2682 82.076 20.3962 81.596L22.6522 73.772C22.7482 73.452 22.8602 73.244 22.9882 73.148C23.1482 73.02 23.3242 72.956 23.5162 72.956H23.9482C24.1402 72.956 24.3002 73.02 24.4282 73.148C24.5882 73.244 24.7162 73.452 24.8122 73.772L27.0202 81.596C27.1482 82.108 27.4202 82.476 27.8362 82.7C28.2522 82.924 28.7162 83.036 29.2282 83.036H35.6122C36.1242 83.036 36.5242 82.876 36.8122 82.556C37.1322 82.204 37.3722 81.788 37.5322 81.308L39.9322 74.78C40.3482 73.596 40.5882 72.572 40.6522 71.708C40.7482 70.812 40.7962 69.852 40.7962 68.828V50.204C40.7962 49.596 40.6522 49.164 40.3642 48.908C40.1082 48.62 39.6762 48.476 39.0682 48.476H31.9162Z"
  />
  <path
    class="svg-background"
    d="M52.7321 83.036H73.1801C73.7881 83.036 74.2201 82.908 74.4761 82.652C74.7641 82.364 74.9081 81.916 74.9081 81.308V75.596C74.9081 74.988 74.7641 74.556 74.4761 74.3C74.2201 74.012 73.7881 73.868 73.1801 73.868H68.5241V57.74H73.1801C73.7881 57.74 74.2201 57.612 74.4761 57.356C74.7641 57.068 74.9081 56.62 74.9081 56.012V50.204C74.9081 49.596 74.7641 49.164 74.4761 48.908C74.2201 48.62 73.7881 48.476 73.1801 48.476H52.7321C52.1241 48.476 51.6761 48.62 51.3881 48.908C51.1321 49.164 51.0041 49.596 51.0041 50.204V56.012C51.0041 56.62 51.1321 57.068 51.3881 57.356C51.6761 57.612 52.1241 57.74 52.7321 57.74H57.4841V73.868H52.7321C52.1241 73.868 51.6761 74.012 51.3881 74.3C51.1321 74.556 51.0041 74.988 51.0041 75.596V81.308C51.0041 81.916 51.1321 82.364 51.3881 82.652C51.6761 82.908 52.1241 83.036 52.7321 83.036Z"
  />
  <path
    class="svg-background"
    d="M101.936 83.036C102.544 83.036 102.976 82.908 103.232 82.652C103.52 82.364 103.664 81.916 103.664 81.308V57.74H110.72C111.328 57.74 111.76 57.612 112.016 57.356C112.304 57.068 112.448 56.62 112.448 56.012V50.204C112.448 49.596 112.304 49.164 112.016 48.908C111.76 48.62 111.328 48.476 110.72 48.476H85.3758C84.7678 48.476 84.3198 48.62 84.0318 48.908C83.7758 49.164 83.6478 49.596 83.6478 50.204V56.012C83.6478 56.62 83.7758 57.068 84.0318 57.356C84.3198 57.612 84.7678 57.74 85.3758 57.74H92.4318V81.308C92.4318 81.916 92.5598 82.364 92.8158 82.652C93.1038 82.908 93.5518 83.036 94.1598 83.036H101.936Z"
  />
  <path
    class="svg-background"
    d="M144.655 83.036C145.263 83.036 145.695 82.908 145.951 82.652C146.239 82.364 146.383 81.916 146.383 81.308V75.596C146.383 74.988 146.239 74.556 145.951 74.3C145.695 74.012 145.263 73.868 144.655 73.868H135.007C134.015 73.868 133.279 73.692 132.799 73.34C132.319 72.956 132.079 72.364 132.079 71.564V60.14C132.079 59.34 132.319 58.748 132.799 58.364C133.279 57.948 134.015 57.74 135.007 57.74H144.655C145.263 57.74 145.695 57.612 145.951 57.356C146.239 57.068 146.383 56.62 146.383 56.012V50.204C146.383 49.596 146.239 49.164 145.951 48.908C145.695 48.62 145.263 48.476 144.655 48.476H132.943C128.943 48.476 125.967 49.292 124.015 50.924C122.095 52.524 121.135 54.988 121.135 58.316V73.244C121.135 76.572 122.095 79.036 124.015 80.636C125.967 82.236 128.943 83.036 132.943 83.036H144.655Z"
  />
  <path
    class="svg-background"
    d="M165.753 83.036C166.361 83.036 166.793 82.908 167.049 82.652C167.337 82.364 167.481 81.916 167.481 81.308V70.652H175.497V81.308C175.497 81.916 175.625 82.364 175.881 82.652C176.169 82.908 176.617 83.036 177.225 83.036H184.665C185.273 83.036 185.705 82.908 185.961 82.652C186.249 82.364 186.393 81.916 186.393 81.308V50.204C186.393 49.596 186.249 49.164 185.961 48.908C185.705 48.62 185.273 48.476 184.665 48.476H177.225C176.617 48.476 176.169 48.62 175.881 48.908C175.625 49.164 175.497 49.596 175.497 50.204V60.62H167.481V50.204C167.481 49.596 167.337 49.164 167.049 48.908C166.793 48.62 166.361 48.476 165.753 48.476H158.313C157.705 48.476 157.257 48.62 156.969 48.908C156.713 49.164 156.585 49.596 156.585 50.204V81.308C156.585 81.916 156.713 82.364 156.969 82.652C157.257 82.908 157.705 83.036 158.313 83.036H165.753Z"
  />
  <path
    class="svg-background"
    d="M31.9162 48.476C31.3082 48.476 30.8602 48.62 30.5722 48.908C30.3162 49.164 30.1882 49.596 30.1882 50.204V67.868L27.4042 61.82C27.1482 61.276 26.8122 60.892 26.3962 60.668C25.9802 60.444 25.4682 60.332 24.8602 60.332H22.8442C22.2362 60.332 21.7242 60.444 21.3082 60.668C20.8922 60.892 20.5562 61.276 20.3002 61.82L17.5162 67.868V50.204C17.5162 49.596 17.3722 49.164 17.0842 48.908C16.8282 48.62 16.3962 48.476 15.7882 48.476H8.39618C7.78818 48.476 7.34018 48.62 7.05218 48.908C6.79618 49.164 6.66818 49.596 6.66818 50.204V68.732C6.66818 69.756 6.70018 70.716 6.76418 71.612C6.86018 72.476 7.11618 73.5 7.53218 74.684L9.93218 81.308C10.0922 81.82 10.3482 82.236 10.7002 82.556C11.0842 82.876 11.5322 83.036 12.0442 83.036H18.3802C18.8922 83.036 19.3242 82.924 19.6762 82.7C20.0282 82.444 20.2682 82.076 20.3962 81.596L22.6522 73.772C22.7482 73.452 22.8602 73.244 22.9882 73.148C23.1482 73.02 23.3242 72.956 23.5162 72.956H23.9482C24.1402 72.956 24.3002 73.02 24.4282 73.148C24.5882 73.244 24.7162 73.452 24.8122 73.772L27.0202 81.596C27.1482 82.108 27.4202 82.476 27.8362 82.7C28.2522 82.924 28.7162 83.036 29.2282 83.036H35.6122C36.1242 83.036 36.5242 82.876 36.8122 82.556C37.1322 82.204 37.3722 81.788 37.5322 81.308L39.9322 74.78C40.3482 73.596 40.5882 72.572 40.6522 71.708C40.7482 70.812 40.7962 69.852 40.7962 68.828V50.204C40.7962 49.596 40.6522 49.164 40.3642 48.908C40.1082 48.62 39.6762 48.476 39.0682 48.476H31.9162Z"
  />
  <path
    class="svg-background"
    d="M52.7321 83.036H73.1801C73.7881 83.036 74.2201 82.908 74.4761 82.652C74.7641 82.364 74.9081 81.916 74.9081 81.308V75.596C74.9081 74.988 74.7641 74.556 74.4761 74.3C74.2201 74.012 73.7881 73.868 73.1801 73.868H68.5241V57.74H73.1801C73.7881 57.74 74.2201 57.612 74.4761 57.356C74.7641 57.068 74.9081 56.62 74.9081 56.012V50.204C74.9081 49.596 74.7641 49.164 74.4761 48.908C74.2201 48.62 73.7881 48.476 73.1801 48.476H52.7321C52.1241 48.476 51.6761 48.62 51.3881 48.908C51.1321 49.164 51.0041 49.596 51.0041 50.204V56.012C51.0041 56.62 51.1321 57.068 51.3881 57.356C51.6761 57.612 52.1241 57.74 52.7321 57.74H57.4841V73.868H52.7321C52.1241 73.868 51.6761 74.012 51.3881 74.3C51.1321 74.556 51.0041 74.988 51.0041 75.596V81.308C51.0041 81.916 51.1321 82.364 51.3881 82.652C51.6761 82.908 52.1241 83.036 52.7321 83.036Z"
  />
  <path
    class="svg-background"
    d="M101.936 83.036C102.544 83.036 102.976 82.908 103.232 82.652C103.52 82.364 103.664 81.916 103.664 81.308V57.74H110.72C111.328 57.74 111.76 57.612 112.016 57.356C112.304 57.068 112.448 56.62 112.448 56.012V50.204C112.448 49.596 112.304 49.164 112.016 48.908C111.76 48.62 111.328 48.476 110.72 48.476H85.3758C84.7678 48.476 84.3198 48.62 84.0318 48.908C83.7758 49.164 83.6478 49.596 83.6478 50.204V56.012C83.6478 56.62 83.7758 57.068 84.0318 57.356C84.3198 57.612 84.7678 57.74 85.3758 57.74H92.4318V81.308C92.4318 81.916 92.5598 82.364 92.8158 82.652C93.1038 82.908 93.5518 83.036 94.1598 83.036H101.936Z"
  />
  <path
    class="svg-background"
    d="M144.655 83.036C145.263 83.036 145.695 82.908 145.951 82.652C146.239 82.364 146.383 81.916 146.383 81.308V75.596C146.383 74.988 146.239 74.556 145.951 74.3C145.695 74.012 145.263 73.868 144.655 73.868H135.007C134.015 73.868 133.279 73.692 132.799 73.34C132.319 72.956 132.079 72.364 132.079 71.564V60.14C132.079 59.34 132.319 58.748 132.799 58.364C133.279 57.948 134.015 57.74 135.007 57.74H144.655C145.263 57.74 145.695 57.612 145.951 57.356C146.239 57.068 146.383 56.62 146.383 56.012V50.204C146.383 49.596 146.239 49.164 145.951 48.908C145.695 48.62 145.263 48.476 144.655 48.476H132.943C128.943 48.476 125.967 49.292 124.015 50.924C122.095 52.524 121.135 54.988 121.135 58.316V73.244C121.135 76.572 122.095 79.036 124.015 80.636C125.967 82.236 128.943 83.036 132.943 83.036H144.655Z"
  />
  <path
    class="svg-background"
    d="M165.753 83.036C166.361 83.036 166.793 82.908 167.049 82.652C167.337 82.364 167.481 81.916 167.481 81.308V70.652H175.497V81.308C175.497 81.916 175.625 82.364 175.881 82.652C176.169 82.908 176.617 83.036 177.225 83.036H184.665C185.273 83.036 185.705 82.908 185.961 82.652C186.249 82.364 186.393 81.916 186.393 81.308V50.204C186.393 49.596 186.249 49.164 185.961 48.908C185.705 48.62 185.273 48.476 184.665 48.476H177.225C176.617 48.476 176.169 48.62 175.881 48.908C175.625 49.164 175.497 49.596 175.497 50.204V60.62H167.481V50.204C167.481 49.596 167.337 49.164 167.049 48.908C166.793 48.62 166.361 48.476 165.753 48.476H158.313C157.705 48.476 157.257 48.62 156.969 48.908C156.713 49.164 156.585 49.596 156.585 50.204V81.308C156.585 81.916 156.713 82.364 156.969 82.652C157.257 82.908 157.705 83.036 158.313 83.036H165.753Z"
  />
  <path
    class="svg-fixed-black"
    d="M24.384 66.48C24.896 66.48 25.296 66.64 25.584 66.96C25.904 67.248 26.288 67.84 26.736 68.736L31.152 77.568C31.312 77.888 31.504 78.08 31.728 78.144C31.984 78.208 32.224 78.24 32.448 78.24H32.688C32.944 78.24 33.184 78.144 33.408 77.952C33.632 77.728 33.76 77.488 33.792 77.232L34.992 71.76C35.12 71.152 35.184 70.368 35.184 69.408C35.216 68.448 35.232 67.616 35.232 66.912V52.8H35.712V66.96C35.712 67.664 35.696 68.496 35.664 69.456C35.664 70.416 35.6 71.2 35.472 71.808L34.272 77.232C34.144 77.744 33.936 78.128 33.648 78.384C33.392 78.608 33.072 78.72 32.688 78.72H32.352C32.064 78.72 31.76 78.672 31.44 78.576C31.152 78.448 30.928 78.224 30.768 77.904L26.352 68.976C25.936 68.144 25.6 67.6 25.344 67.344C25.088 67.088 24.768 66.96 24.384 66.96H23.184C22.8 66.96 22.48 67.088 22.224 67.344C21.968 67.6 21.632 68.144 21.216 68.976L16.8 77.904C16.64 78.224 16.4 78.448 16.08 78.576C15.792 78.672 15.504 78.72 15.216 78.72H14.88C14.496 78.72 14.16 78.608 13.872 78.384C13.616 78.128 13.424 77.744 13.296 77.232L12.096 71.808C11.968 71.2 11.888 70.416 11.856 69.456C11.856 68.496 11.856 67.664 11.856 66.96V52.8H12.336V66.912C12.336 67.616 12.336 68.448 12.336 69.408C12.368 70.368 12.448 71.152 12.576 71.76L13.776 77.232C13.808 77.488 13.936 77.728 14.16 77.952C14.384 78.144 14.624 78.24 14.88 78.24H15.12C15.344 78.24 15.568 78.208 15.792 78.144C16.048 78.08 16.256 77.888 16.416 77.568L20.832 68.736C21.28 67.84 21.648 67.248 21.936 66.96C22.256 66.64 22.672 66.48 23.184 66.48H24.384ZM31.92 48.48C31.312 48.48 30.864 48.624 30.576 48.912C30.32 49.168 30.192 49.6 30.192 50.208V67.872L27.408 61.824C27.152 61.28 26.816 60.896 26.4 60.672C25.984 60.448 25.472 60.336 24.864 60.336H22.848C22.24 60.336 21.728 60.448 21.312 60.672C20.896 60.896 20.56 61.28 20.304 61.824L17.52 67.872V50.208C17.52 49.6 17.376 49.168 17.088 48.912C16.832 48.624 16.4 48.48 15.792 48.48H8.4C7.792 48.48 7.344 48.624 7.056 48.912C6.8 49.168 6.672 49.6 6.672 50.208V68.736C6.672 69.76 6.704 70.72 6.768 71.616C6.864 72.48 7.12 73.504 7.536 74.688L9.936 81.312C10.096 81.824 10.352 82.24 10.704 82.56C11.088 82.88 11.536 83.04 12.048 83.04H18.384C18.896 83.04 19.328 82.928 19.68 82.704C20.032 82.448 20.272 82.08 20.4 81.6L22.656 73.776C22.752 73.456 22.864 73.248 22.992 73.152C23.152 73.024 23.328 72.96 23.52 72.96H23.952C24.144 72.96 24.304 73.024 24.432 73.152C24.592 73.248 24.72 73.456 24.816 73.776L27.024 81.6C27.152 82.112 27.424 82.48 27.84 82.704C28.256 82.928 28.72 83.04 29.232 83.04H35.616C36.128 83.04 36.528 82.88 36.816 82.56C37.136 82.208 37.376 81.792 37.536 81.312L39.936 74.784C40.352 73.6 40.592 72.576 40.656 71.712C40.752 70.816 40.8 69.856 40.8 68.832V50.208C40.8 49.6 40.656 49.168 40.368 48.912C40.112 48.624 39.68 48.48 39.072 48.48H31.92ZM13.872 88.176C13.648 88.336 13.392 88.464 13.104 88.56C12.816 88.688 12.512 88.752 12.192 88.752H5.856C5.248 88.752 4.72 88.56 4.272 88.176C3.824 87.792 3.504 87.296 3.312 86.688L0.912 80.064C0.464 78.88 0.192 77.84 0.096 76.944C0.032 76.016 0 75.024 0 73.968V55.44C0 55.024 0.048 54.672 0.144 54.384C0.272 54.096 0.448 53.856 0.672 53.664L6.864 48.432C7.024 48.304 7.232 48.208 7.488 48.144C7.776 48.048 8.08 48 8.4 48H15.792C16.56 48 17.12 48.176 17.472 48.528C17.824 48.88 18 49.44 18 50.208V62.736L20.688 60.48C20.944 60.256 21.248 60.096 21.6 60C21.984 59.904 22.4 59.856 22.848 59.856H23.52V55.44C23.52 55.024 23.568 54.672 23.664 54.384C23.76 54.096 23.904 53.872 24.096 53.712L24.144 53.664L30.384 48.432C30.544 48.304 30.752 48.208 31.008 48.144C31.264 48.048 31.568 48 31.92 48H39.072C39.84 48 40.4 48.176 40.752 48.528C41.104 48.88 41.28 49.44 41.28 50.208V68.832C41.28 69.888 41.232 70.88 41.136 71.808C41.072 72.704 40.816 73.744 40.368 74.928L37.968 81.456C37.872 81.776 37.744 82.064 37.584 82.32C37.424 82.576 37.232 82.816 37.008 83.04L30.816 88.176C30.624 88.368 30.416 88.512 30.192 88.608C29.968 88.704 29.712 88.752 29.424 88.752H23.04C22.4 88.752 21.84 88.608 21.36 88.32C20.88 88.032 20.544 87.584 20.352 86.976L19.392 83.568L13.872 88.176Z"
    fill="black" />
  <path
    class="svg-fixed-black"
    d="M66.9919 88.752H46.5439C45.7759 88.752 45.2159 88.576 44.8639 88.224C44.5119 87.872 44.3359 87.312 44.3359 86.544V80.832C44.3359 80.416 44.3839 80.064 44.4799 79.776C44.6079 79.488 44.7839 79.248 45.0079 79.056L50.8159 74.16V63.456H46.5439C45.7759 63.456 45.2159 63.28 44.8639 62.928C44.5119 62.576 44.3359 62.016 44.3359 61.248V55.44C44.3359 55.024 44.3839 54.672 44.4799 54.384C44.6079 54.096 44.7839 53.856 45.0079 53.664L51.1999 48.432C51.3599 48.304 51.5679 48.208 51.8239 48.144C52.1119 48.048 52.4159 48 52.7359 48H73.1839C73.9519 48 74.5119 48.176 74.8639 48.528C75.2159 48.88 75.3919 49.44 75.3919 50.208V56.016C75.3919 56.432 75.3279 56.784 75.1999 57.072C75.1039 57.36 74.9439 57.6 74.7199 57.792L69.0079 62.592V73.392H73.1839C73.9519 73.392 74.5119 73.568 74.8639 73.92C75.2159 74.272 75.3919 74.832 75.3919 75.6V81.312C75.3919 81.728 75.3279 82.08 75.1999 82.368C75.1039 82.656 74.9439 82.896 74.7199 83.088L68.4799 88.272C68.3519 88.4 68.1439 88.512 67.8559 88.608C67.5999 88.704 67.3119 88.752 66.9919 88.752ZM52.7359 83.04H73.1839C73.7919 83.04 74.2239 82.912 74.4799 82.656C74.7679 82.368 74.9119 81.92 74.9119 81.312V75.6C74.9119 74.992 74.7679 74.56 74.4799 74.304C74.2239 74.016 73.7919 73.872 73.1839 73.872H68.5279V57.744H73.1839C73.7919 57.744 74.2239 57.616 74.4799 57.36C74.7679 57.072 74.9119 56.624 74.9119 56.016V50.208C74.9119 49.6 74.7679 49.168 74.4799 48.912C74.2239 48.624 73.7919 48.48 73.1839 48.48H52.7359C52.1279 48.48 51.6799 48.624 51.3919 48.912C51.1359 49.168 51.0079 49.6 51.0079 50.208V56.016C51.0079 56.624 51.1359 57.072 51.3919 57.36C51.6799 57.616 52.1279 57.744 52.7359 57.744H57.4879V73.872H52.7359C52.1279 73.872 51.6799 74.016 51.3919 74.304C51.1359 74.56 51.0079 74.992 51.0079 75.6V81.312C51.0079 81.92 51.1359 82.368 51.3919 82.656C51.6799 82.912 52.1279 83.04 52.7359 83.04ZM70.5919 78.72H55.3279V78.24H62.7679V53.28H55.3279V52.8H70.5919V53.28H63.2479V78.24H70.5919V78.72Z"
    fill="black" />
  <path
    class="svg-fixed-black"
    d="M95.7476 88.752H87.9716C87.2036 88.752 86.6436 88.576 86.2916 88.224C85.9396 87.872 85.7636 87.312 85.7636 86.544V63.456H79.1876C78.4196 63.456 77.8596 63.28 77.5076 62.928C77.1556 62.576 76.9796 62.016 76.9796 61.248V55.44C76.9796 55.024 77.0276 54.672 77.1236 54.384C77.2516 54.096 77.4276 53.856 77.6516 53.664L83.8436 48.432C84.0036 48.304 84.2116 48.208 84.4676 48.144C84.7556 48.048 85.0596 48 85.3796 48H110.724C111.492 48 112.052 48.176 112.404 48.528C112.756 48.88 112.932 49.44 112.932 50.208V56.016C112.932 56.432 112.868 56.784 112.74 57.072C112.644 57.36 112.484 57.6 112.26 57.792L106.02 62.976C105.892 63.104 105.684 63.216 105.396 63.312C105.14 63.408 104.852 63.456 104.532 63.456H104.148V81.312C104.148 81.728 104.084 82.08 103.956 82.368C103.86 82.656 103.7 82.896 103.476 83.088L97.2356 88.272C97.1076 88.4 96.8996 88.512 96.6116 88.608C96.3556 88.704 96.0676 88.752 95.7476 88.752ZM101.94 83.04C102.548 83.04 102.98 82.912 103.236 82.656C103.524 82.368 103.668 81.92 103.668 81.312V57.744H110.724C111.332 57.744 111.764 57.616 112.02 57.36C112.308 57.072 112.452 56.624 112.452 56.016V50.208C112.452 49.6 112.308 49.168 112.02 48.912C111.764 48.624 111.332 48.48 110.724 48.48H85.3796C84.7716 48.48 84.3236 48.624 84.0356 48.912C83.7796 49.168 83.6516 49.6 83.6516 50.208V56.016C83.6516 56.624 83.7796 57.072 84.0356 57.36C84.3236 57.616 84.7716 57.744 85.3796 57.744H92.4356V81.312C92.4356 81.92 92.5636 82.368 92.8196 82.656C93.1076 82.912 93.5556 83.04 94.1636 83.04H101.94ZM97.8116 78.72V53.28H87.9716V52.8H108.132V53.28H98.2916V78.72H97.8116Z"
    fill="black" />
  <path
    class="svg-fixed-black"
    d="M138.467 88.752H126.755C122.563 88.752 119.458 87.664 117.442 85.488C115.458 83.312 114.466 80.496 114.466 77.04V63.552C114.466 61.792 114.722 60.272 115.234 58.992C115.746 57.68 116.499 56.592 117.491 55.728L123.73 50.496C124.722 49.664 125.986 49.04 127.522 48.624C129.058 48.208 130.867 48 132.947 48H144.659C145.427 48 145.987 48.176 146.339 48.528C146.691 48.88 146.867 49.44 146.867 50.208V56.016C146.867 56.432 146.802 56.784 146.674 57.072C146.578 57.36 146.419 57.6 146.195 57.792L139.954 62.976C139.826 63.104 139.619 63.216 139.331 63.312C139.075 63.408 138.787 63.456 138.467 63.456H132.562V71.568C132.562 72.24 132.771 72.72 133.187 73.008C133.603 73.264 134.21 73.392 135.01 73.392H144.659C145.427 73.392 145.987 73.568 146.339 73.92C146.691 74.272 146.867 74.832 146.867 75.6V81.312C146.867 81.728 146.802 82.08 146.674 82.368C146.578 82.656 146.419 82.896 146.195 83.088L139.954 88.272C139.826 88.4 139.619 88.512 139.331 88.608C139.075 88.704 138.787 88.752 138.467 88.752ZM144.659 83.04C145.267 83.04 145.698 82.912 145.954 82.656C146.242 82.368 146.387 81.92 146.387 81.312V75.6C146.387 74.992 146.242 74.56 145.954 74.304C145.698 74.016 145.267 73.872 144.659 73.872H135.01C134.018 73.872 133.283 73.696 132.803 73.344C132.323 72.96 132.083 72.368 132.083 71.568V60.144C132.083 59.344 132.323 58.752 132.803 58.368C133.283 57.952 134.018 57.744 135.01 57.744H144.659C145.267 57.744 145.698 57.616 145.954 57.36C146.242 57.072 146.387 56.624 146.387 56.016V50.208C146.387 49.6 146.242 49.168 145.954 48.912C145.698 48.624 145.267 48.48 144.659 48.48H132.947C128.947 48.48 125.971 49.296 124.019 50.928C122.099 52.528 121.139 54.992 121.139 58.32V73.248C121.139 76.576 122.099 79.04 124.019 80.64C125.971 82.24 128.947 83.04 132.947 83.04H144.659ZM142.019 78.24V78.72H134.003C130.899 78.72 128.835 78.24 127.811 77.28C126.819 76.32 126.323 74.736 126.323 72.528V59.088C126.323 56.816 126.834 55.2 127.858 54.24C128.882 53.28 130.931 52.8 134.003 52.8H142.019V53.28H134.003C131.187 53.28 129.282 53.728 128.29 54.624C127.298 55.488 126.802 56.976 126.802 59.088V72.528C126.802 74.608 127.283 76.08 128.243 76.944C129.203 77.808 131.123 78.24 134.003 78.24H142.019Z"
    fill="black" />
  <path
    class="svg-fixed-black"
    d="M161.772 78.72V52.8H162.252V65.52H180.684V52.8H181.164V78.72H180.684V66H162.252V78.72H161.772ZM165.756 83.04C166.364 83.04 166.796 82.912 167.052 82.656C167.34 82.368 167.484 81.92 167.484 81.312V70.656H175.5V81.312C175.5 81.92 175.628 82.368 175.884 82.656C176.172 82.912 176.62 83.04 177.228 83.04H184.668C185.276 83.04 185.708 82.912 185.964 82.656C186.252 82.368 186.396 81.92 186.396 81.312V50.208C186.396 49.6 186.252 49.168 185.964 48.912C185.708 48.624 185.276 48.48 184.668 48.48H177.228C176.62 48.48 176.172 48.624 175.884 48.912C175.628 49.168 175.5 49.6 175.5 50.208V60.624H167.484V50.208C167.484 49.6 167.34 49.168 167.052 48.912C166.796 48.624 166.364 48.48 165.756 48.48H158.316C157.708 48.48 157.26 48.624 156.972 48.912C156.716 49.168 156.588 49.6 156.588 50.208V81.312C156.588 81.92 156.716 82.368 156.972 82.656C157.26 82.912 157.708 83.04 158.316 83.04H165.756ZM167.292 83.088L161.052 88.272C160.924 88.4 160.716 88.512 160.428 88.608C160.172 88.704 159.884 88.752 159.564 88.752H152.124C151.356 88.752 150.796 88.576 150.444 88.224C150.092 87.872 149.916 87.312 149.916 86.544V55.44C149.916 55.024 149.964 54.672 150.06 54.384C150.188 54.096 150.364 53.856 150.588 53.664L156.78 48.432C156.94 48.304 157.148 48.208 157.404 48.144C157.692 48.048 157.996 48 158.316 48H165.756C166.524 48 167.084 48.176 167.436 48.528C167.788 48.88 167.964 49.44 167.964 50.208V60.144H168.828V55.44C168.828 55.024 168.876 54.672 168.972 54.384C169.1 54.096 169.276 53.856 169.5 53.664L175.692 48.432C175.852 48.304 176.06 48.208 176.316 48.144C176.604 48.048 176.908 48 177.228 48H184.668C185.436 48 185.996 48.176 186.348 48.528C186.7 48.88 186.876 49.44 186.876 50.208V81.312C186.876 81.728 186.812 82.08 186.684 82.368C186.588 82.656 186.428 82.896 186.204 83.088L179.964 88.272C179.836 88.4 179.628 88.512 179.34 88.608C179.084 88.704 178.796 88.752 178.476 88.752H171.036C170.268 88.752 169.708 88.576 169.356 88.224C169.004 87.872 168.828 87.312 168.828 86.544V76.368H167.964V81.312C167.964 81.728 167.9 82.08 167.772 82.368C167.676 82.656 167.516 82.896 167.292 83.088Z"
    fill="black" />
  <path
    class="svg-background"
    d="M67.049 0.475952C66.441 0.475952 65.993 0.619952 65.705 0.907952C65.449 1.16395 65.321 1.59595 65.321 2.20395V19.868L62.537 13.82C62.281 13.276 61.945 12.892 61.529 12.668C61.113 12.444 60.601 12.332 59.993 12.332H57.977C57.369 12.332 56.857 12.444 56.441 12.668C56.025 12.892 55.689 13.276 55.433 13.82L52.649 19.868V2.20395C52.649 1.59595 52.505 1.16395 52.217 0.907952C51.961 0.619952 51.529 0.475952 50.921 0.475952H43.529C42.921 0.475952 42.473 0.619952 42.185 0.907952C41.929 1.16395 41.801 1.59595 41.801 2.20395V20.732C41.801 21.756 41.833 22.716 41.897 23.612C41.993 24.476 42.249 25.5 42.665 26.684L45.065 33.308C45.225 33.82 45.481 34.236 45.833 34.556C46.217 34.876 46.665 35.036 47.177 35.036H53.513C54.025 35.036 54.457 34.924 54.809 34.7C55.161 34.444 55.401 34.076 55.529 33.596L57.785 25.772C57.881 25.452 57.993 25.244 58.121 25.148C58.281 25.02 58.457 24.956 58.649 24.956H59.081C59.273 24.956 59.433 25.02 59.561 25.148C59.721 25.244 59.849 25.452 59.945 25.772L62.153 33.596C62.281 34.108 62.553 34.476 62.969 34.7C63.385 34.924 63.849 35.036 64.361 35.036H70.745C71.257 35.036 71.657 34.876 71.945 34.556C72.265 34.204 72.505 33.788 72.665 33.308L75.065 26.78C75.481 25.596 75.721 24.572 75.785 23.708C75.881 22.812 75.929 21.852 75.929 20.828V2.20395C75.929 1.59595 75.785 1.16395 75.497 0.907952C75.241 0.619952 74.809 0.475952 74.201 0.475952H67.049Z"
  />
  <path
    class="svg-background"
    d="M110.905 35.036C111.513 35.036 111.945 34.908 112.201 34.652C112.489 34.364 112.633 33.916 112.633 33.308V27.692C112.633 27.084 112.489 26.652 112.201 26.396C111.945 26.108 111.513 25.964 110.905 25.964H97.6569V21.836H107.017C107.625 21.836 108.057 21.708 108.313 21.452C108.601 21.1639 108.745 20.716 108.745 20.108V14.972C108.745 14.364 108.601 13.932 108.313 13.676C108.057 13.388 107.625 13.244 107.017 13.244H97.6569V9.54795H110.905C111.513 9.54795 111.945 9.41995 112.201 9.16395C112.489 8.87595 112.633 8.42795 112.633 7.81995V2.20395C112.633 1.59595 112.489 1.16395 112.201 0.907952C111.945 0.619952 111.513 0.475952 110.905 0.475952H88.6329C88.0249 0.475952 87.5769 0.619952 87.2889 0.907952C87.0329 1.16395 86.9049 1.59595 86.9049 2.20395V33.308C86.9049 33.916 87.0329 34.364 87.2889 34.652C87.5769 34.908 88.0249 35.036 88.6329 35.036H110.905Z"
  />
  <path
    class="svg-background"
    d="M143.252 35.036C146.42 35.036 148.756 34.396 150.26 33.116C151.796 31.836 152.564 29.852 152.564 27.164V22.748C152.564 20.412 152.068 18.636 151.076 17.42C150.084 16.204 148.564 15.5 146.516 15.308C147.476 14.892 148.18 14.268 148.628 13.436C149.108 12.572 149.348 11.468 149.348 10.124V7.81995C149.348 5.32395 148.596 3.48395 147.092 2.29995C145.588 1.08395 143.268 0.475952 140.132 0.475952H124.82C124.212 0.475952 123.764 0.619952 123.476 0.907952C123.22 1.16395 123.092 1.59595 123.092 2.20395V33.308C123.092 33.916 123.22 34.364 123.476 34.652C123.764 34.908 124.212 35.036 124.82 35.036H143.252ZM133.892 8.63595H137.972C138.58 8.63595 139.028 8.79595 139.316 9.11595C139.636 9.43595 139.796 9.91595 139.796 10.556V11.9C139.796 12.54 139.636 13.02 139.316 13.34C139.028 13.66 138.58 13.82 137.972 13.82H133.892V8.63595ZM133.892 21.212H140.132C140.74 21.212 141.188 21.372 141.476 21.692C141.796 21.98 141.956 22.444 141.956 23.084V24.956C141.956 25.596 141.796 26.076 141.476 26.396C141.188 26.716 140.74 26.876 140.132 26.876H133.892V21.212Z"
  />
  <path
    class="svg-fixed-black"
    d="M59.5168 18.48C60.0288 18.48 60.4288 18.64 60.7168 18.96C61.0368 19.248 61.4208 19.84 61.8688 20.736L66.2848 29.568C66.4448 29.888 66.6368 30.08 66.8608 30.144C67.1168 30.208 67.3568 30.24 67.5808 30.24H67.8208C68.0768 30.24 68.3168 30.144 68.5408 29.952C68.7648 29.728 68.8928 29.488 68.9248 29.232L70.1248 23.76C70.2528 23.152 70.3168 22.368 70.3168 21.408C70.3488 20.448 70.3648 19.616 70.3648 18.912V4.8H70.8448V18.96C70.8448 19.664 70.8288 20.496 70.7968 21.456C70.7968 22.416 70.7328 23.2 70.6048 23.808L69.4048 29.232C69.2768 29.744 69.0688 30.128 68.7808 30.384C68.5248 30.608 68.2048 30.72 67.8208 30.72H67.4848C67.1968 30.72 66.8928 30.672 66.5728 30.576C66.2848 30.448 66.0608 30.224 65.9008 29.904L61.4848 20.976C61.0688 20.144 60.7328 19.6 60.4768 19.344C60.2208 19.088 59.9008 18.96 59.5168 18.96H58.3168C57.9328 18.96 57.6128 19.088 57.3568 19.344C57.1008 19.6 56.7648 20.144 56.3488 20.976L51.9328 29.904C51.7728 30.224 51.5328 30.448 51.2128 30.576C50.9248 30.672 50.6368 30.72 50.3488 30.72H50.0128C49.6288 30.72 49.2928 30.608 49.0048 30.384C48.7488 30.128 48.5568 29.744 48.4288 29.232L47.2288 23.808C47.1008 23.2 47.0208 22.416 46.9888 21.456C46.9888 20.496 46.9888 19.664 46.9888 18.96V4.8H47.4688V18.912C47.4688 19.616 47.4688 20.448 47.4688 21.408C47.5008 22.368 47.5808 23.152 47.7088 23.76L48.9088 29.232C48.9408 29.488 49.0688 29.728 49.2928 29.952C49.5168 30.144 49.7568 30.24 50.0128 30.24H50.2528C50.4768 30.24 50.7008 30.208 50.9248 30.144C51.1808 30.08 51.3888 29.888 51.5488 29.568L55.9648 20.736C56.4128 19.84 56.7808 19.248 57.0688 18.96C57.3888 18.64 57.8048 18.48 58.3168 18.48H59.5168ZM67.0528 0.48C66.4448 0.48 65.9968 0.624 65.7088 0.912C65.4528 1.168 65.3248 1.6 65.3248 2.208V19.872L62.5408 13.824C62.2848 13.28 61.9488 12.896 61.5328 12.672C61.1168 12.448 60.6048 12.336 59.9968 12.336H57.9808C57.3728 12.336 56.8608 12.448 56.4448 12.672C56.0288 12.896 55.6928 13.28 55.4368 13.824L52.6528 19.872V2.208C52.6528 1.6 52.5088 1.168 52.2208 0.912C51.9648 0.624 51.5328 0.48 50.9248 0.48H43.5328C42.9248 0.48 42.4768 0.624 42.1888 0.912C41.9328 1.168 41.8048 1.6 41.8048 2.208V20.736C41.8048 21.76 41.8368 22.72 41.9008 23.616C41.9968 24.48 42.2528 25.504 42.6688 26.688L45.0688 33.312C45.2288 33.824 45.4848 34.24 45.8368 34.56C46.2208 34.88 46.6688 35.04 47.1808 35.04H53.5168C54.0288 35.04 54.4608 34.928 54.8128 34.704C55.1648 34.448 55.4048 34.08 55.5328 33.6L57.7888 25.776C57.8848 25.456 57.9968 25.248 58.1248 25.152C58.2848 25.024 58.4608 24.96 58.6528 24.96H59.0848C59.2768 24.96 59.4368 25.024 59.5648 25.152C59.7248 25.248 59.8528 25.456 59.9488 25.776L62.1568 33.6C62.2848 34.112 62.5568 34.48 62.9728 34.704C63.3888 34.928 63.8528 35.04 64.3648 35.04H70.7488C71.2608 35.04 71.6608 34.88 71.9488 34.56C72.2688 34.208 72.5088 33.792 72.6688 33.312L75.0688 26.784C75.4848 25.6 75.7248 24.576 75.7888 23.712C75.8848 22.816 75.9328 21.856 75.9328 20.832V2.208C75.9328 1.6 75.7888 1.168 75.5008 0.912C75.2448 0.624 74.8128 0.48 74.2048 0.48H67.0528ZM49.0048 40.176C48.7808 40.336 48.5248 40.464 48.2368 40.56C47.9488 40.688 47.6448 40.752 47.3248 40.752H40.9888C40.3808 40.752 39.8528 40.56 39.4048 40.176C38.9568 39.792 38.6368 39.296 38.4448 38.688L36.0448 32.064C35.5968 30.88 35.3248 29.84 35.2288 28.944C35.1648 28.016 35.1328 27.024 35.1328 25.968V7.44C35.1328 7.024 35.1808 6.672 35.2768 6.384C35.4048 6.096 35.5808 5.856 35.8048 5.664L41.9968 0.432C42.1568 0.304 42.3648 0.207999 42.6208 0.143998C42.9088 0.0479994 43.2128 0 43.5328 0H50.9248C51.6928 0 52.2528 0.176 52.6048 0.527999C52.9568 0.88 53.1328 1.44 53.1328 2.208V14.736L55.8208 12.48C56.0768 12.256 56.3808 12.096 56.7328 12C57.1168 11.904 57.5328 11.856 57.9808 11.856H58.6528V7.44C58.6528 7.024 58.7008 6.672 58.7968 6.384C58.8928 6.096 59.0368 5.872 59.2288 5.712L59.2768 5.664L65.5168 0.432C65.6768 0.304 65.8848 0.207999 66.1408 0.143998C66.3968 0.0479994 66.7008 0 67.0528 0H74.2048C74.9728 0 75.5328 0.176 75.8848 0.527999C76.2368 0.88 76.4128 1.44 76.4128 2.208V20.832C76.4128 21.888 76.3648 22.88 76.2688 23.808C76.2048 24.704 75.9488 25.744 75.5008 26.928L73.1008 33.456C73.0048 33.776 72.8768 34.064 72.7168 34.32C72.5568 34.576 72.3648 34.816 72.1408 35.04L65.9488 40.176C65.7568 40.368 65.5488 40.512 65.3248 40.608C65.1008 40.704 64.8448 40.752 64.5568 40.752H58.1728C57.5328 40.752 56.9728 40.608 56.4928 40.32C56.0128 40.032 55.6768 39.584 55.4848 38.976L54.5248 35.568L49.0048 40.176Z"
    fill="black" />
  <path
    class="svg-fixed-black"
    d="M104.717 40.752H82.4447C81.6767 40.752 81.1167 40.576 80.7647 40.224C80.4127 39.872 80.2367 39.312 80.2367 38.544V7.44C80.2367 7.024 80.2847 6.672 80.3807 6.384C80.5087 6.096 80.6847 5.856 80.9087 5.664L87.1007 0.432C87.2607 0.304 87.4687 0.207999 87.7247 0.143998C88.0127 0.0479994 88.3167 0 88.6367 0H110.909C111.677 0 112.237 0.176 112.589 0.527999C112.941 0.88 113.117 1.44 113.117 2.208V7.824C113.117 8.24 113.053 8.592 112.925 8.88C112.829 9.168 112.669 9.408 112.445 9.6L108.317 13.008C108.637 13.168 108.861 13.408 108.989 13.728C109.149 14.048 109.229 14.464 109.229 14.976V20.112C109.229 20.528 109.165 20.88 109.037 21.168C108.941 21.456 108.781 21.696 108.557 21.888L104.285 25.488H110.909C111.677 25.488 112.237 25.664 112.589 26.016C112.941 26.368 113.117 26.928 113.117 27.696V33.312C113.117 33.728 113.053 34.08 112.925 34.368C112.829 34.656 112.669 34.896 112.445 35.088L106.205 40.272C106.077 40.4 105.869 40.512 105.581 40.608C105.325 40.704 105.037 40.752 104.717 40.752ZM110.909 35.04C111.517 35.04 111.949 34.912 112.205 34.656C112.493 34.368 112.637 33.92 112.637 33.312V27.696C112.637 27.088 112.493 26.656 112.205 26.4C111.949 26.112 111.517 25.968 110.909 25.968H97.6607V21.84H107.021C107.629 21.84 108.061 21.712 108.317 21.456C108.605 21.168 108.749 20.72 108.749 20.112V14.976C108.749 14.368 108.605 13.936 108.317 13.68C108.061 13.392 107.629 13.248 107.021 13.248H97.6607V9.552H110.909C111.517 9.552 111.949 9.424 112.205 9.168C112.493 8.88 112.637 8.432 112.637 7.824V2.208C112.637 1.6 112.493 1.168 112.205 0.912C111.949 0.624 111.517 0.48 110.909 0.48H88.6367C88.0287 0.48 87.5807 0.624 87.2927 0.912C87.0367 1.168 86.9087 1.6 86.9087 2.208V33.312C86.9087 33.92 87.0367 34.368 87.2927 34.656C87.5807 34.912 88.0287 35.04 88.6367 35.04H110.909ZM108.317 30.24V30.72H92.1407V4.8H108.317V5.28H92.6207V17.328H104.429V17.808H92.6207V30.24H108.317Z"
    fill="black" />
  <path
    class="svg-fixed-black"
    d="M118.632 40.752C117.864 40.752 117.304 40.576 116.952 40.224C116.6 39.872 116.424 39.312 116.424 38.544V7.44C116.424 7.024 116.472 6.672 116.568 6.384C116.696 6.096 116.872 5.856 117.096 5.664L123.288 0.432C123.448 0.304 123.656 0.207999 123.912 0.143998C124.2 0.0479994 124.504 0 124.824 0H140.136C143.464 0 145.912 0.656 147.48 1.968C149.048 3.248 149.832 5.2 149.832 7.824V10.128C149.832 11.248 149.672 12.208 149.352 13.008C149.064 13.808 148.616 14.448 148.008 14.928L147.864 15.024C149.592 15.408 150.888 16.24 151.752 17.52C152.616 18.768 153.048 20.512 153.048 22.752V27.168C153.048 28.608 152.84 29.856 152.424 30.912C152.008 31.936 151.384 32.8 150.552 33.504L144.36 38.736C143.56 39.408 142.552 39.904 141.336 40.224C140.12 40.576 138.696 40.752 137.064 40.752H118.632ZM143.256 35.04C146.424 35.04 148.76 34.4 150.264 33.12C151.8 31.84 152.568 29.856 152.568 27.168V22.752C152.568 20.416 152.072 18.64 151.08 17.424C150.088 16.208 148.568 15.504 146.52 15.312C147.48 14.896 148.184 14.272 148.632 13.44C149.112 12.576 149.352 11.472 149.352 10.128V7.824C149.352 5.328 148.6 3.488 147.096 2.304C145.592 1.088 143.272 0.48 140.136 0.48H124.824C124.216 0.48 123.768 0.624 123.48 0.912C123.224 1.168 123.096 1.6 123.096 2.208V33.312C123.096 33.92 123.224 34.368 123.48 34.656C123.768 34.912 124.216 35.04 124.824 35.04H143.256ZM141.336 30.72H128.424V4.8H138.168C139.48 4.8 140.552 4.944 141.384 5.232C142.216 5.488 142.856 5.856 143.304 6.336C143.752 6.784 144.056 7.312 144.216 7.92C144.376 8.528 144.456 9.184 144.456 9.888V12.96C144.456 13.92 144.28 14.8 143.928 15.6C143.608 16.4 142.76 16.976 141.384 17.328C142.696 17.328 143.768 17.472 144.6 17.76C145.432 18.016 146.072 18.4 146.52 18.912C146.968 19.392 147.256 19.968 147.384 20.64C147.544 21.312 147.624 22.048 147.624 22.848V25.92C147.624 26.624 147.544 27.28 147.384 27.888C147.224 28.464 146.92 28.96 146.472 29.376C146.056 29.792 145.432 30.128 144.6 30.384C143.768 30.608 142.68 30.72 141.336 30.72ZM138.168 5.28H128.904V17.328H138.168C139.48 17.328 140.52 17.216 141.288 16.992C142.056 16.736 142.632 16.416 143.016 16.032C143.432 15.616 143.688 15.152 143.784 14.64C143.912 14.096 143.976 13.536 143.976 12.96V9.888C143.976 8.608 143.608 7.52 142.872 6.624C142.136 5.728 140.568 5.28 138.168 5.28ZM133.896 8.64H137.976C138.584 8.64 139.032 8.8 139.32 9.12C139.64 9.44 139.8 9.92 139.8 10.56V11.904C139.8 12.544 139.64 13.024 139.32 13.344C139.032 13.664 138.584 13.824 137.976 13.824H133.896V8.64ZM141.384 17.808H128.904V30.24H141.336C143.736 30.24 145.304 29.856 146.04 29.088C146.776 28.288 147.144 27.232 147.144 25.92V22.848C147.144 21.408 146.776 20.208 146.04 19.248C145.336 18.288 143.784 17.808 141.384 17.808ZM133.896 21.216H140.136C140.744 21.216 141.192 21.376 141.48 21.696C141.8 21.984 141.96 22.448 141.96 23.088V24.96C141.96 25.6 141.8 26.08 141.48 26.4C141.192 26.72 140.744 26.88 140.136 26.88H133.896V21.216Z"
    fill="black" />
</svg>